<mxfile host="app.diagrams.net" modified="2024-05-04T22:15:04.244Z" agent="Mozilla/5.0 (Windows NT 10.0; Win64; x64) AppleWebKit/537.36 (KHTML, like Gecko) Chrome/124.0.0.0 Safari/537.36" etag="rz6LPXRsKCwcbQkLv0EE" version="24.3.1" type="google">
  <diagram id="C5RBs43oDa-KdzZeNtuy" name="Page-1">
    <mxGraphModel grid="1" page="1" gridSize="10" guides="1" tooltips="1" connect="1" arrows="1" fold="1" pageScale="1" pageWidth="827" pageHeight="1169" math="0" shadow="0">
      <root>
        <mxCell id="WIyWlLk6GJQsqaUBKTNV-0" />
        <mxCell id="WIyWlLk6GJQsqaUBKTNV-1" parent="WIyWlLk6GJQsqaUBKTNV-0" />
        <mxCell id="gkIwTCzYSSdyjLMf6ZDH-39" value="&lt;&lt;Abstract&gt;&gt;&#xa;FileSystem" style="swimlane;fontStyle=0;align=center;verticalAlign=top;childLayout=stackLayout;horizontal=1;startSize=40;horizontalStack=0;resizeParent=1;resizeLast=0;collapsible=1;marginBottom=0;rounded=0;shadow=0;strokeWidth=1;fillColor=#fff2cc;strokeColor=#d6b656;" vertex="1" parent="WIyWlLk6GJQsqaUBKTNV-1">
          <mxGeometry x="641" y="-2090" width="360" height="320" as="geometry">
            <mxRectangle x="110" y="-20" width="160" height="26" as="alternateBounds" />
          </mxGeometry>
        </mxCell>
        <mxCell id="gkIwTCzYSSdyjLMf6ZDH-42" value="- nombre: String" style="text;align=left;verticalAlign=top;spacingLeft=4;spacingRight=4;overflow=hidden;rotatable=0;points=[[0,0.5],[1,0.5]];portConstraint=eastwest;rounded=0;shadow=0;html=0;" vertex="1" parent="gkIwTCzYSSdyjLMf6ZDH-39">
          <mxGeometry y="40" width="360" height="26" as="geometry" />
        </mxCell>
        <mxCell id="gkIwTCzYSSdyjLMf6ZDH-41" value="- fecha: Date" style="text;align=left;verticalAlign=top;spacingLeft=4;spacingRight=4;overflow=hidden;rotatable=0;points=[[0,0.5],[1,0.5]];portConstraint=eastwest;" vertex="1" parent="gkIwTCzYSSdyjLMf6ZDH-39">
          <mxGeometry y="66" width="360" height="26" as="geometry" />
        </mxCell>
        <mxCell id="gkIwTCzYSSdyjLMf6ZDH-40" value="" style="line;html=1;strokeWidth=1;align=left;verticalAlign=middle;spacingTop=-1;spacingLeft=3;spacingRight=3;rotatable=0;labelPosition=right;points=[];portConstraint=eastwest;" vertex="1" parent="gkIwTCzYSSdyjLMf6ZDH-39">
          <mxGeometry y="92" width="360" height="8" as="geometry" />
        </mxCell>
        <mxCell id="gkIwTCzYSSdyjLMf6ZDH-43" value="+ getNombre() : String&#xa;" style="text;align=left;verticalAlign=top;spacingLeft=4;spacingRight=4;overflow=hidden;rotatable=0;points=[[0,0.5],[1,0.5]];portConstraint=eastwest;rounded=0;shadow=0;html=0;" vertex="1" parent="gkIwTCzYSSdyjLMf6ZDH-39">
          <mxGeometry y="100" width="360" height="26" as="geometry" />
        </mxCell>
        <mxCell id="gkIwTCzYSSdyjLMf6ZDH-44" value="+ getFecha() : Date" style="text;align=left;verticalAlign=top;spacingLeft=4;spacingRight=4;overflow=hidden;rotatable=0;points=[[0,0.5],[1,0.5]];portConstraint=eastwest;rounded=0;shadow=0;html=0;" vertex="1" parent="gkIwTCzYSSdyjLMf6ZDH-39">
          <mxGeometry y="126" width="360" height="26" as="geometry" />
        </mxCell>
        <mxCell id="gkIwTCzYSSdyjLMf6ZDH-48" value="+ &lt;&lt;abstract&gt;&gt; tamanoTotalOcupado(): Integer&#xa;" style="text;align=left;verticalAlign=top;spacingLeft=4;spacingRight=4;overflow=hidden;rotatable=0;points=[[0,0.5],[1,0.5]];portConstraint=eastwest;rounded=0;shadow=0;html=0;" vertex="1" parent="gkIwTCzYSSdyjLMf6ZDH-39">
          <mxGeometry y="152" width="360" height="26" as="geometry" />
        </mxCell>
        <mxCell id="gkIwTCzYSSdyjLMf6ZDH-49" value="+ &lt;&lt;abstract&gt;&gt; archivoMasGrande(): Archivo" style="text;align=left;verticalAlign=top;spacingLeft=4;spacingRight=4;overflow=hidden;rotatable=0;points=[[0,0.5],[1,0.5]];portConstraint=eastwest;rounded=0;shadow=0;html=0;" vertex="1" parent="gkIwTCzYSSdyjLMf6ZDH-39">
          <mxGeometry y="178" width="360" height="26" as="geometry" />
        </mxCell>
        <mxCell id="gkIwTCzYSSdyjLMf6ZDH-50" value="+ &lt;&lt;abstract&gt;&gt; archivoMasNuevo(): Archivo" style="text;align=left;verticalAlign=top;spacingLeft=4;spacingRight=4;overflow=hidden;rotatable=0;points=[[0,0.5],[1,0.5]];portConstraint=eastwest;rounded=0;shadow=0;html=0;" vertex="1" parent="gkIwTCzYSSdyjLMf6ZDH-39">
          <mxGeometry y="204" width="360" height="26" as="geometry" />
        </mxCell>
        <mxCell id="gkIwTCzYSSdyjLMf6ZDH-47" value="+ &lt;&lt;abstract&gt;&gt; buscar(nombre: String): FileSystem" style="text;align=left;verticalAlign=top;spacingLeft=4;spacingRight=4;overflow=hidden;rotatable=0;points=[[0,0.5],[1,0.5]];portConstraint=eastwest;rounded=0;shadow=0;html=0;" vertex="1" parent="gkIwTCzYSSdyjLMf6ZDH-39">
          <mxGeometry y="230" width="360" height="26" as="geometry" />
        </mxCell>
        <mxCell id="gkIwTCzYSSdyjLMf6ZDH-45" value="+ &lt;&lt;abstract&gt;&gt; buscarTodos(nombre: String): FileSystem[*]" style="text;align=left;verticalAlign=top;spacingLeft=4;spacingRight=4;overflow=hidden;rotatable=0;points=[[0,0.5],[1,0.5]];portConstraint=eastwest;rounded=0;shadow=0;html=0;" vertex="1" parent="gkIwTCzYSSdyjLMf6ZDH-39">
          <mxGeometry y="256" width="360" height="26" as="geometry" />
        </mxCell>
        <mxCell id="gkIwTCzYSSdyjLMf6ZDH-46" style="edgeStyle=orthogonalEdgeStyle;rounded=0;orthogonalLoop=1;jettySize=auto;html=1;exitX=1;exitY=0.5;exitDx=0;exitDy=0;" edge="1" parent="gkIwTCzYSSdyjLMf6ZDH-39" source="gkIwTCzYSSdyjLMf6ZDH-42" target="gkIwTCzYSSdyjLMf6ZDH-42">
          <mxGeometry relative="1" as="geometry" />
        </mxCell>
        <mxCell id="gkIwTCzYSSdyjLMf6ZDH-51" value=" + &lt;&lt;abstract&gt;&gt; listadoDeContenido(): String" style="text;align=left;verticalAlign=top;spacingLeft=4;spacingRight=4;overflow=hidden;rotatable=0;points=[[0,0.5],[1,0.5]];portConstraint=eastwest;rounded=0;shadow=0;html=0;" vertex="1" parent="gkIwTCzYSSdyjLMf6ZDH-39">
          <mxGeometry y="282" width="360" height="26" as="geometry" />
        </mxCell>
        <mxCell id="gkIwTCzYSSdyjLMf6ZDH-78" style="edgeStyle=orthogonalEdgeStyle;rounded=0;orthogonalLoop=1;jettySize=auto;html=1;entryX=0.25;entryY=1;entryDx=0;entryDy=0;endArrow=block;endFill=0;endSize=15;startSize=15;" edge="1" parent="WIyWlLk6GJQsqaUBKTNV-1" source="gkIwTCzYSSdyjLMf6ZDH-52" target="gkIwTCzYSSdyjLMf6ZDH-39">
          <mxGeometry relative="1" as="geometry" />
        </mxCell>
        <mxCell id="gkIwTCzYSSdyjLMf6ZDH-52" value="&lt;&lt;Abstract&gt;&gt;&#xa;Archivo" style="swimlane;fontStyle=0;align=center;verticalAlign=top;childLayout=stackLayout;horizontal=1;startSize=40;horizontalStack=0;resizeParent=1;resizeLast=0;collapsible=1;marginBottom=0;rounded=0;shadow=0;strokeWidth=1;fillColor=#fff2cc;strokeColor=#d6b656;" vertex="1" parent="WIyWlLk6GJQsqaUBKTNV-1">
          <mxGeometry x="401" y="-1650" width="360" height="270" as="geometry">
            <mxRectangle x="110" y="-20" width="160" height="26" as="alternateBounds" />
          </mxGeometry>
        </mxCell>
        <mxCell id="gkIwTCzYSSdyjLMf6ZDH-53" value="- tamanio: Integer" style="text;align=left;verticalAlign=top;spacingLeft=4;spacingRight=4;overflow=hidden;rotatable=0;points=[[0,0.5],[1,0.5]];portConstraint=eastwest;rounded=0;shadow=0;html=0;" vertex="1" parent="gkIwTCzYSSdyjLMf6ZDH-52">
          <mxGeometry y="40" width="360" height="26" as="geometry" />
        </mxCell>
        <mxCell id="gkIwTCzYSSdyjLMf6ZDH-55" value="" style="line;html=1;strokeWidth=1;align=left;verticalAlign=middle;spacingTop=-1;spacingLeft=3;spacingRight=3;rotatable=0;labelPosition=right;points=[];portConstraint=eastwest;" vertex="1" parent="gkIwTCzYSSdyjLMf6ZDH-52">
          <mxGeometry y="66" width="360" height="8" as="geometry" />
        </mxCell>
        <mxCell id="gkIwTCzYSSdyjLMf6ZDH-56" value="+ tamanoTotalOcupado(): Integer&#xa;" style="text;align=left;verticalAlign=top;spacingLeft=4;spacingRight=4;overflow=hidden;rotatable=0;points=[[0,0.5],[1,0.5]];portConstraint=eastwest;rounded=0;shadow=0;html=0;" vertex="1" parent="gkIwTCzYSSdyjLMf6ZDH-52">
          <mxGeometry y="74" width="360" height="26" as="geometry" />
        </mxCell>
        <mxCell id="gkIwTCzYSSdyjLMf6ZDH-57" value="+ archivoMasGrande(): Archivo" style="text;align=left;verticalAlign=top;spacingLeft=4;spacingRight=4;overflow=hidden;rotatable=0;points=[[0,0.5],[1,0.5]];portConstraint=eastwest;rounded=0;shadow=0;html=0;" vertex="1" parent="gkIwTCzYSSdyjLMf6ZDH-52">
          <mxGeometry y="100" width="360" height="26" as="geometry" />
        </mxCell>
        <mxCell id="gkIwTCzYSSdyjLMf6ZDH-58" value="+ archivoMasNuevo(): Archivo&#xa;" style="text;align=left;verticalAlign=top;spacingLeft=4;spacingRight=4;overflow=hidden;rotatable=0;points=[[0,0.5],[1,0.5]];portConstraint=eastwest;rounded=0;shadow=0;html=0;" vertex="1" parent="gkIwTCzYSSdyjLMf6ZDH-52">
          <mxGeometry y="126" width="360" height="26" as="geometry" />
        </mxCell>
        <mxCell id="gkIwTCzYSSdyjLMf6ZDH-59" value="+ buscar(nombre: String): FileSystem" style="text;align=left;verticalAlign=top;spacingLeft=4;spacingRight=4;overflow=hidden;rotatable=0;points=[[0,0.5],[1,0.5]];portConstraint=eastwest;rounded=0;shadow=0;html=0;" vertex="1" parent="gkIwTCzYSSdyjLMf6ZDH-52">
          <mxGeometry y="152" width="360" height="26" as="geometry" />
        </mxCell>
        <mxCell id="gkIwTCzYSSdyjLMf6ZDH-60" value="+ buscarTodos(nombre: String): FileSystem[*]" style="text;align=left;verticalAlign=top;spacingLeft=4;spacingRight=4;overflow=hidden;rotatable=0;points=[[0,0.5],[1,0.5]];portConstraint=eastwest;rounded=0;shadow=0;html=0;" vertex="1" parent="gkIwTCzYSSdyjLMf6ZDH-52">
          <mxGeometry y="178" width="360" height="26" as="geometry" />
        </mxCell>
        <mxCell id="gkIwTCzYSSdyjLMf6ZDH-61" value="+ listadoDeContenido(): String" style="text;align=left;verticalAlign=top;spacingLeft=4;spacingRight=4;overflow=hidden;rotatable=0;points=[[0,0.5],[1,0.5]];portConstraint=eastwest;rounded=0;shadow=0;html=0;" vertex="1" parent="gkIwTCzYSSdyjLMf6ZDH-52">
          <mxGeometry y="204" width="360" height="26" as="geometry" />
        </mxCell>
        <mxCell id="gkIwTCzYSSdyjLMf6ZDH-63" style="edgeStyle=orthogonalEdgeStyle;rounded=0;orthogonalLoop=1;jettySize=auto;html=1;exitX=1;exitY=0.5;exitDx=0;exitDy=0;" edge="1" parent="gkIwTCzYSSdyjLMf6ZDH-52" source="gkIwTCzYSSdyjLMf6ZDH-53" target="gkIwTCzYSSdyjLMf6ZDH-53">
          <mxGeometry relative="1" as="geometry" />
        </mxCell>
        <mxCell id="gkIwTCzYSSdyjLMf6ZDH-79" style="edgeStyle=orthogonalEdgeStyle;rounded=0;orthogonalLoop=1;jettySize=auto;html=1;entryX=0.75;entryY=1;entryDx=0;entryDy=0;endArrow=block;endFill=0;startSize=15;targetPerimeterSpacing=-1;endSize=15;" edge="1" parent="WIyWlLk6GJQsqaUBKTNV-1" source="gkIwTCzYSSdyjLMf6ZDH-65" target="gkIwTCzYSSdyjLMf6ZDH-39">
          <mxGeometry relative="1" as="geometry" />
        </mxCell>
        <mxCell id="gkIwTCzYSSdyjLMf6ZDH-80" style="edgeStyle=orthogonalEdgeStyle;rounded=0;orthogonalLoop=1;jettySize=auto;html=1;exitX=0.75;exitY=0;exitDx=0;exitDy=0;entryX=1;entryY=0.5;entryDx=0;entryDy=0;endSize=15;startSize=15;startArrow=diamondThin;startFill=1;" edge="1" parent="WIyWlLk6GJQsqaUBKTNV-1" source="gkIwTCzYSSdyjLMf6ZDH-65" target="gkIwTCzYSSdyjLMf6ZDH-48">
          <mxGeometry relative="1" as="geometry" />
        </mxCell>
        <mxCell id="gkIwTCzYSSdyjLMf6ZDH-65" value="&lt;&lt;Abstract&gt;&gt;&#xa;Directorio" style="swimlane;fontStyle=0;align=center;verticalAlign=top;childLayout=stackLayout;horizontal=1;startSize=40;horizontalStack=0;resizeParent=1;resizeLast=0;collapsible=1;marginBottom=0;rounded=0;shadow=0;strokeWidth=1;fillColor=#fff2cc;strokeColor=#d6b656;" vertex="1" parent="WIyWlLk6GJQsqaUBKTNV-1">
          <mxGeometry x="881" y="-1650" width="360" height="280" as="geometry">
            <mxRectangle x="110" y="-20" width="160" height="26" as="alternateBounds" />
          </mxGeometry>
        </mxCell>
        <mxCell id="gkIwTCzYSSdyjLMf6ZDH-68" value="" style="line;html=1;strokeWidth=1;align=left;verticalAlign=middle;spacingTop=-1;spacingLeft=3;spacingRight=3;rotatable=0;labelPosition=right;points=[];portConstraint=eastwest;" vertex="1" parent="gkIwTCzYSSdyjLMf6ZDH-65">
          <mxGeometry y="40" width="360" height="8" as="geometry" />
        </mxCell>
        <mxCell id="gkIwTCzYSSdyjLMf6ZDH-69" value="+ getFiles(): FileSystem[*]&#xa;" style="text;align=left;verticalAlign=top;spacingLeft=4;spacingRight=4;overflow=hidden;rotatable=0;points=[[0,0.5],[1,0.5]];portConstraint=eastwest;rounded=0;shadow=0;html=0;" vertex="1" parent="gkIwTCzYSSdyjLMf6ZDH-65">
          <mxGeometry y="48" width="360" height="26" as="geometry" />
        </mxCell>
        <mxCell id="gkIwTCzYSSdyjLMf6ZDH-70" value="+ agregar(archivo: FileSystem): void" style="text;align=left;verticalAlign=top;spacingLeft=4;spacingRight=4;overflow=hidden;rotatable=0;points=[[0,0.5],[1,0.5]];portConstraint=eastwest;rounded=0;shadow=0;html=0;" vertex="1" parent="gkIwTCzYSSdyjLMf6ZDH-65">
          <mxGeometry y="74" width="360" height="26" as="geometry" />
        </mxCell>
        <mxCell id="gkIwTCzYSSdyjLMf6ZDH-71" value="+ tamanoTotalOcupado(): Integer&#xa;" style="text;align=left;verticalAlign=top;spacingLeft=4;spacingRight=4;overflow=hidden;rotatable=0;points=[[0,0.5],[1,0.5]];portConstraint=eastwest;rounded=0;shadow=0;html=0;" vertex="1" parent="gkIwTCzYSSdyjLMf6ZDH-65">
          <mxGeometry y="100" width="360" height="26" as="geometry" />
        </mxCell>
        <mxCell id="gkIwTCzYSSdyjLMf6ZDH-72" value="+ archivoMasGrande(): Archivo" style="text;align=left;verticalAlign=top;spacingLeft=4;spacingRight=4;overflow=hidden;rotatable=0;points=[[0,0.5],[1,0.5]];portConstraint=eastwest;rounded=0;shadow=0;html=0;" vertex="1" parent="gkIwTCzYSSdyjLMf6ZDH-65">
          <mxGeometry y="126" width="360" height="26" as="geometry" />
        </mxCell>
        <mxCell id="gkIwTCzYSSdyjLMf6ZDH-73" value="+ archivoMasNuevo(): Archivo" style="text;align=left;verticalAlign=top;spacingLeft=4;spacingRight=4;overflow=hidden;rotatable=0;points=[[0,0.5],[1,0.5]];portConstraint=eastwest;rounded=0;shadow=0;html=0;" vertex="1" parent="gkIwTCzYSSdyjLMf6ZDH-65">
          <mxGeometry y="152" width="360" height="26" as="geometry" />
        </mxCell>
        <mxCell id="gkIwTCzYSSdyjLMf6ZDH-74" value="+ buscar(nombre: String): FileSystem" style="text;align=left;verticalAlign=top;spacingLeft=4;spacingRight=4;overflow=hidden;rotatable=0;points=[[0,0.5],[1,0.5]];portConstraint=eastwest;rounded=0;shadow=0;html=0;" vertex="1" parent="gkIwTCzYSSdyjLMf6ZDH-65">
          <mxGeometry y="178" width="360" height="26" as="geometry" />
        </mxCell>
        <mxCell id="gkIwTCzYSSdyjLMf6ZDH-75" value="+ buscarTodos(nombre: String): FileSystem[*]" style="text;align=left;verticalAlign=top;spacingLeft=4;spacingRight=4;overflow=hidden;rotatable=0;points=[[0,0.5],[1,0.5]];portConstraint=eastwest;rounded=0;shadow=0;html=0;" vertex="1" parent="gkIwTCzYSSdyjLMf6ZDH-65">
          <mxGeometry y="204" width="360" height="26" as="geometry" />
        </mxCell>
        <mxCell id="gkIwTCzYSSdyjLMf6ZDH-76" style="edgeStyle=orthogonalEdgeStyle;rounded=0;orthogonalLoop=1;jettySize=auto;html=1;exitX=1;exitY=0.5;exitDx=0;exitDy=0;" edge="1" parent="gkIwTCzYSSdyjLMf6ZDH-65">
          <mxGeometry relative="1" as="geometry">
            <mxPoint x="360" y="53.00000000000023" as="sourcePoint" />
            <mxPoint x="360" y="53.00000000000023" as="targetPoint" />
          </mxGeometry>
        </mxCell>
        <mxCell id="gkIwTCzYSSdyjLMf6ZDH-77" value="+ listadoDeContenido(): String" style="text;align=left;verticalAlign=top;spacingLeft=4;spacingRight=4;overflow=hidden;rotatable=0;points=[[0,0.5],[1,0.5]];portConstraint=eastwest;rounded=0;shadow=0;html=0;" vertex="1" parent="gkIwTCzYSSdyjLMf6ZDH-65">
          <mxGeometry y="230" width="360" height="26" as="geometry" />
        </mxCell>
        <mxCell id="gkIwTCzYSSdyjLMf6ZDH-82" value="&lt;b style=&quot;&quot;&gt;&lt;i&gt;&lt;font style=&quot;font-size: 20px;&quot;&gt;PATRON COMPOSITE&lt;/font&gt;&lt;/i&gt;&lt;/b&gt;" style="text;html=1;align=center;verticalAlign=middle;resizable=0;points=[];autosize=1;strokeColor=none;fillColor=none;" vertex="1" parent="WIyWlLk6GJQsqaUBKTNV-1">
          <mxGeometry x="361" y="-2170" width="230" height="40" as="geometry" />
        </mxCell>
        <mxCell id="gkIwTCzYSSdyjLMf6ZDH-83" value="&lt;i&gt;&lt;b&gt;&lt;font style=&quot;font-size: 14px;&quot;&gt;COMPONENT&lt;/font&gt;&lt;/b&gt;&lt;/i&gt;" style="text;html=1;align=center;verticalAlign=middle;whiteSpace=wrap;rounded=0;" vertex="1" parent="WIyWlLk6GJQsqaUBKTNV-1">
          <mxGeometry x="641" y="-2110" width="100" height="20" as="geometry" />
        </mxCell>
        <mxCell id="gkIwTCzYSSdyjLMf6ZDH-84" value="&lt;b&gt;&lt;i&gt;&lt;font style=&quot;font-size: 14px;&quot;&gt;LEAF&lt;/font&gt;&lt;/i&gt;&lt;/b&gt;" style="text;html=1;align=center;verticalAlign=middle;whiteSpace=wrap;rounded=0;" vertex="1" parent="WIyWlLk6GJQsqaUBKTNV-1">
          <mxGeometry x="406" y="-1670" width="50" height="20" as="geometry" />
        </mxCell>
        <mxCell id="gkIwTCzYSSdyjLMf6ZDH-85" value="&lt;font style=&quot;font-size: 14px;&quot;&gt;&lt;b&gt;&lt;i&gt;COMPOSITE&lt;/i&gt;&lt;/b&gt;&lt;/font&gt;" style="text;html=1;align=center;verticalAlign=middle;whiteSpace=wrap;rounded=0;" vertex="1" parent="WIyWlLk6GJQsqaUBKTNV-1">
          <mxGeometry x="881" y="-1670" width="90" height="20" as="geometry" />
        </mxCell>
        <mxCell id="gkIwTCzYSSdyjLMf6ZDH-87" value="&lt;font style=&quot;font-size: 15px;&quot;&gt;&lt;font style=&quot;font-size: 15px;&quot;&gt;0..*&lt;/font&gt;&lt;span style=&quot;&quot;&gt;&amp;nbsp;- files&lt;/span&gt;&lt;/font&gt;" style="edgeLabel;html=1;align=center;verticalAlign=middle;resizable=0;points=[];" connectable="0" vertex="1" parent="WIyWlLk6GJQsqaUBKTNV-1">
          <mxGeometry x="1071" y="-1940" as="geometry">
            <mxPoint x="1" y="1" as="offset" />
          </mxGeometry>
        </mxCell>
        <mxCell id="gkIwTCzYSSdyjLMf6ZDH-89" value="&lt;span style=&quot;font-size: 15px;&quot;&gt;1&lt;/span&gt;" style="edgeLabel;html=1;align=center;verticalAlign=middle;resizable=0;points=[];" connectable="0" vertex="1" parent="WIyWlLk6GJQsqaUBKTNV-1">
          <mxGeometry x="1110" y="-1890" as="geometry">
            <mxPoint x="28" y="220" as="offset" />
          </mxGeometry>
        </mxCell>
        <mxCell id="gkIwTCzYSSdyjLMf6ZDH-90" value="&lt;b style=&quot;&quot;&gt;&lt;i&gt;&lt;font style=&quot;font-size: 20px;&quot;&gt;ejercicio_07_FileSystem&lt;/font&gt;&lt;/i&gt;&lt;/b&gt;" style="text;html=1;align=center;verticalAlign=middle;resizable=0;points=[];autosize=1;strokeColor=none;fillColor=none;" vertex="1" parent="WIyWlLk6GJQsqaUBKTNV-1">
          <mxGeometry x="1030" y="-1340" width="250" height="40" as="geometry" />
        </mxCell>
      </root>
    </mxGraphModel>
  </diagram>
</mxfile>
